<svg version="1.1" xmlns="http://www.w3.org/2000/svg" xmlns:xlink="http://www.w3.org/1999/xlink" width="211.61485" height="163.92761" viewBox="0,0,211.61485,163.92761"><defs><linearGradient x1="261.00909" y1="115.26614" x2="261.00909" y2="138.34114" gradientTransform="translate(-469.63818,-265.14478) scale(2,2)" gradientUnits="userSpaceOnUse" id="color-1"><stop offset="0" stop-color="#9966ff"/><stop offset="1" stop-color="#66ebff"/></linearGradient></defs><g transform="translate(-132.73536,-110.82239)"><g data-paper-data="{&quot;isPaintingLayer&quot;:true}" fill-rule="nonzero" stroke="none" stroke-width="1" stroke-linecap="butt" stroke-linejoin="miter" stroke-miterlimit="10" stroke-dasharray="" stroke-dashoffset="0" style="mix-blend-mode: normal"><g><path d="M244.95,165.2l87.8,-36c9.4,-3.9 15.8,9.8 6.8,14.5l-63,33.2c-9.9,5.2 -22,2.2 -28.3,-7z" fill="#fcf6ec"/><path d="M250.45,167.6l0.6,-4.6l0.5,-0.1l-0.6,4.6l5.9,4.6l6.9,-2.8l1,-7.1l-3.9,-3.1l0.9,-0.4l3.4,2.6l7,-2.9l0.6,-4.3l0.6,-0.3l-0.6,4.7l5.7,4.6l6.9,-2.8l1,-7.5l-3.6,-2.8l12,-4.9l-0.6,4.5l5.9,4.6l7,-2.8l1,-7.1l-3.9,-3l0.9,-0.4l3.4,2.6l7,-2.9l0.6,-4.2l0.7,-0.3l-0.6,4.7l5.8,4.5l6.9,-2.8l1,-7.1l-3.9,-3l0.9,-0.4l3.3,2.6l7.1,-2.9l0.4,-2.8l0.5,0.1l-0.4,2.9l6,4.7l-0.4,3.1c-0.2,0.5 -0.4,0.9 -0.7,1.3l0.4,-4.2l-5.6,-4.3v-0.2l-7.3,3l-0.9,6.9l5.1,4l-0.5,0.3l-4.9,-3.8l-7,2.9l-1.1,7.7l-7.2,3l-0.1,0.9l-0.5,0.3l0.2,-1.3l-5.9,-4.6l-6.9,2.8l-1,7.5l2.1,1.7l-0.5,0.3l-2,-1.5l-7,2.9l-0.5,3.7l-0.5,0.3l0.5,-4l-5.9,-4.6l-6.9,2.8l-1,7.5l4.2,3.1l-0.5,0.3l-3.9,-3.1l-7,2.8l-0.7,5c-0.2,0.1 -0.3,0.1 -0.5,0.1l0.7,-5.1l-5.9,-4.6l-6.9,2.8l-0.7,4.8l-0.5,-0.2l0.6,-4.6zM307.75,151.4l5.9,4.6l6.9,-2.8l1,-7.5l-5.6,-4.3v0.1l-7.3,3zM286.05,160.3l5.9,4.6l6.9,-2.8l1,-7.5l-5.9,-4.6l-6.9,2.8zM264.45,169.1l5.9,4.6l6.9,-2.8l1,-7.5l-5.6,-4.3v0.1l-7.3,3z" fill="#e1d9ca"/><path d="M244.95,165.2l87.8,-36c3.5,-1.4 6.6,-0.4 8.6,1.7l-93.6,38.3z" fill="#758a72"/><path d="M330.35,135.3l-0.5,0.3l-1.9,-4.4l0.5,-0.2l1.9,4.3" fill="#1a252e"/><path d="M317.85,140.5l-0.5,0.2l-1.9,-4.4l0.5,-0.2l1.9,4.4" fill="#1a252e"/></g><g><path d="M232.05,169.6c-5.1,10 -16.7,14.6 -27.2,10.8l-66.8,-24.5c-9.6,-3.5 -5.1,-17.9 4.8,-15.3l91.8,24z" fill="#fcf6ec"/><path d="M212.45,181.9h-0.5l-1.3,-4.9l-7.3,-1.9l-3.5,3.5l-0.5,-0.2l3.7,-3.7l-2,-7.3l-7.3,-1.9l-5.3,5.4l1.1,3.9l-0.6,-0.2l-1,-3.6l-7.3,-1.9l-1.8,1.8l-0.5,-0.2l1.9,-1.9l-2,-7.3l-7.3,-1.9l-5.3,5.4l0.3,1.3l-0.6,-0.2l-0.2,-0.9l-7.5,-2l-2.1,-7.5l-7.3,-1.9l-4.3,4.4l-0.5,-0.2l4.5,-4.6l-1.8,-6.7l-7.7,-2v-0.1l-5,5l1.1,4.1c-0.3,-0.4 -0.6,-0.8 -0.8,-1.2l-0.8,-3.1l5.3,-5.4l-0.8,-2.9c0.2,-0.1 0.4,-0.1 0.5,-0.2l0.8,2.8l7.5,2l3.1,-3.2l0.9,0.2l-3.6,3.6l1.9,6.9l7.2,1.9l5.1,-5.3l-1.3,-4.7l0.7,0.2l1.2,4.3l7.3,1.9l3.2,-3.2l0.9,0.2l-3.6,3.7l1.9,6.9l7.2,1.9l5.3,-5.3l-1.3,-4.6l12.7,3.3l-3.3,3.4l2,7.3l7.3,1.9l5.1,-5.3l-1.3,-4.7l0.7,0.2l1.2,4.3l7.3,1.9l3.1,-3.2l0.9,0.2l-3.6,3.7l1.9,6.9l7.2,1.8l5.3,-5.3l-1.3,-4.6l0.6,0.1l1.3,4.6l-5.5,5.6l1.2,4.5l-0.4,0.3l-1.2,-4.7l-7.3,-1.9l-5.3,5.4zM170.55,159.2l-1.8,-6.7l-7.7,-2v-0.1l-5,5l2,7.3l7.3,1.9zM193.35,165.3l-2,-7.3l-7.3,-1.9l-5.3,5.3l2,7.3l7.2,1.8zM210.55,176.5l5.3,-5.4l-1.8,-6.7l-7.7,-2v-0.1l-5,5l2,7.3z" fill="#e1d9ca"/><path d="M232.45,169l-98,-25.6c1.8,-2.3 4.7,-3.8 8.4,-2.8l91.8,24z" fill="#758a72"/><path d="M147.35,141.7l0.5,0.2l-1.3,4.6l-0.5,-0.2l1.3,-4.6" fill="#1a252e"/><path d="M160.35,145.1l0.5,0.2l-1.3,4.6l-0.5,-0.2l1.3,-4.6" fill="#1a252e"/></g><g><path d="M244.25,202.85l1.6,-17.7l92,8.3c8.6,0.8 8.7,13.4 0.1,14.3l-80.5,8.3c-3.6,0.4 -7.1,-0.9 -9.7,-3.4c-2.6,-2.5 -3.9,-6.2 -3.5,-9.8z" fill="#fbf4e9"/><path d="M339.75,197.95l3.1,6.7c-0.2,0.3 -0.4,0.6 -0.7,0.8l0.3,-0.5l-3.2,-6.8l-7.5,-0.7l-4.3,6.2l2,4.4l-0.5,0.1l-2,-4.2l-7.5,-0.7l-4.3,6.2l0.1,0.2v0.1l-0.5,0.1v-0.1l-7.5,-0.7l-1.1,1.6v0.1l-0.7,0.1l1.4,-2l-3.2,-6.8l-7.5,-0.7l-4.3,6.2l2.1,4.5v0.1l-0.5,0.1l-2,-4.4l-7.5,-0.7l-4.3,6.2l0.1,0.3l-0.5,0.1l-0.1,-0.2l-7.5,-0.7l-1.2,1.7l-0.7,0.1l1.5,-2.1l-3.2,-6.8l-7.5,-0.7l-4.3,6.2l2.1,4.6v0.1l-0.5,0.1l-2.1,-4.5l-7.5,-0.7l-0.9,1.3l-0.4,-0.4l0.8,-1.2l-3.2,-7.1l4.5,-6.4l-3.3,-7.1l1.2,-1.7h0.6l-1.3,1.8l3.2,6.7l7.5,0.7l4.3,-6.2l-1.8,-3.9h0.5l1.7,3.8l7.5,0.6l3,-4.3l0.6,0.1l-3.2,4.6l3.2,6.8l7.4,0.6l4.3,-6.2l-2.3,-5l0.6,0.1l2.1,4.8l7.5,0.7l3,-4.3l0.6,0.1l-3.2,4.5l3.2,6.8l7.5,0.7l4.3,-6.2l-2.3,-5l0.6,0.1l2.2,4.8l7.5,0.7l3,-4.3h0.6l-3.2,4.5l3.2,6.8l7.4,0.7l4.3,-6.2l-2.3,-5h0.6l2.2,4.8l7.5,0.7l2.4,-3.4c0.1,0.1 0.3,0.2 0.4,0.3zM256.95,198.05l-7.5,-0.7l-4.3,6.2l3.2,6.8l7.4,0.7l4.3,-6.2zM269.15,192.35l-7.5,-0.7l-4.3,6.2l3.1,6.8l7.5,0.7l4.3,-6.2zM280.05,200.15l-7.5,-0.7l-4.3,6.2l3.2,6.8l7.5,0.7l4.3,-6.2zM292.35,194.45l-7.5,-0.7l-4.3,6.2l3.2,6.8l7.5,0.7l4.3,-6.2zM315.75,196.55l-7.5,-0.7l-4.4,6.2l3.2,6.8l7.5,0.7l4.3,-6.2z" fill="#e1d9ca"/><path d="M344.15,199.05l-98.8,-8.9l0.4,-5l92,8.2c3.2,0.2 5.8,2.6 6.4,5.7z" fill="#758a72"/><path d="M329.75,192.65h0.4l-0.4,5h-0.5l0.5,-5" fill="#1a252e"/><path d="M314.85,191.35h0.5l-0.5,5h-0.4l0.4,-5" fill="#1a252e"/></g><g><path d="M231.95,212.55c-2.6,2.5 -6.1,3.8 -9.7,3.4l-80.4,-8.3c-8.6,-0.9 -8.5,-13.5 0.1,-14.2l92,-8.3l1.6,17.7c0.3,3.6 -1,7.2 -3.6,9.7z" fill="#fbf4e9"/><path d="M137.95,195.05c0.1,-0.1 0.3,-0.2 0.4,-0.3l2.4,3.4l7.5,-0.7l2.2,-4.8h0.5l-2.3,5l4.2,6.3l7.5,-0.7l3.2,-6.8l-3.2,-4.5l0.6,-0.1l3,4.3l7.5,-0.7l2.2,-4.8l0.6,-0.1l-2.3,5l4.3,6.2l7.4,-0.6l3.2,-6.8l-3.2,-4.5l0.6,-0.1l3,4.3l7.5,-0.7l2.2,-4.8l0.6,-0.1l-2.3,5l4.3,6.2l7.4,-0.6l3.2,-6.8l-3.2,-4.5l0.6,-0.1l3,4.3l7.5,-0.7l1.7,-3.8h0.5l-1.8,3.9l4.3,6.2l7.5,-0.7l3.4,-6.7l-1.3,-1.8h0.6l1.2,1.7l-3.3,7.1l4.5,6.4l-3.3,7.1l0.8,1.2l-0.3,0.4l-0.9,-1.3l-7.5,0.7l-2.1,4.5l-0.5,-0.1v-0.1l2.1,-4.6l-4.3,-6.2l-7.5,0.7l-3.2,6.8l1.5,2.5l-0.7,-0.1l-1.2,-1.7l-7.5,0.7l-0.1,0.2l-0.5,-0.1l0.2,-0.3l-4.3,-6.2l-7.5,0.7l-2,4.4l-0.5,-0.1v-0.1l2.1,-4.5l-4.3,-6.2l-7.5,0.7l-3.2,6.8l1.4,2l-0.7,-0.1v-0.1l-1.1,-1.6l-7.5,0.7v0.1l-0.5,-0.1v-0.1l0.1,-0.2l-4.3,-6.2l-7.5,0.7l-2,4.2l-0.5,-0.1l2,-4.4l-4.3,-6.2l-7.5,0.7l-3.2,6.8l0.3,0.5c-0.2,-0.3 -0.5,-0.5 -0.7,-0.8l3.1,-6.7zM219.65,204.85l4.3,6.2l7.5,-0.7l3.2,-6.8l-4.3,-6.2l-7.5,0.7zM207.45,199.15l4.3,6.2l7.5,-0.7l3.2,-6.8l-4.3,-6.2l-7.5,0.7zM196.45,206.95l4.3,6.2l7.5,-0.7l3.1,-6.8l-4.3,-6.2l-7.5,0.7zM184.15,201.25l4.3,6.2l7.5,-0.7l3.2,-6.8l-4.3,-6.2l-7.5,0.7zM160.85,203.35l4.3,6.2l7.5,-0.7l3.2,-6.8l-4.3,-6.2l-7.5,0.7z" fill="#e1d9ca"/><path d="M141.95,193.35l92,-8.3l0.4,5l-98.7,8.9c0.5,-3.1 3.2,-5.4 6.3,-5.6z" fill="#758a72"/><path d="M150.45,197.65h-0.4l-0.5,-5h0.4l0.5,5" fill="#1a252e"/><path d="M165.25,196.35h-0.4l-0.4,-5h0.4l0.4,5" fill="#1a252e"/></g><g><path d="M245.95,181.45v87.3c0,6 -6,6 -6,6c-3.3,0 -6,-2.7 -6,-6v-87.3c0,-3.3 2.7,-6 6,-6c3.3,0 6,2.7 6,6z" fill="#0c5a43"/><g><path d="M233.95,256.9h12v11.5h-12z" fill="#5cbcc5"/><path d="M233.95,227.3h12v17.9h-12z" fill="#eee75a"/><path d="M233.95,200.4h12v13.5h-12z" fill="#eee75a"/></g></g><g><g><path d="M240.05,140.2c1.3,0 2.4,1.1 2.4,2.4v13h-4.8v-13c0,-1.3 1.1,-2.4 2.4,-2.4z" fill="#1c252e"/><path d="M240.05,150.6l2.5,3.7h-5l2.5,-3.7" fill="#758a72"/><path d="M236.25,143.6c0.993,0 1.893,0.403 2.545,1.055c0.652,0.652 1.055,1.552 1.055,2.545c0,0.993 -0.403,1.893 -1.055,2.545c-0.652,0.652 -1.552,1.055 -2.545,1.055c-0.993,0 -1.893,-0.403 -2.545,-1.055c-0.652,-0.652 -1.055,-1.552 -1.055,-2.545c0,-0.993 0.403,-1.893 1.055,-2.545c0.652,-0.652 1.552,-1.055 2.545,-1.055z" fill="#fcf6ec"/><path d="M236.25,145.3c0.524,0 0.999,0.213 1.343,0.557c0.344,0.344 0.557,0.819 0.557,1.343c0,0.524 -0.213,0.999 -0.557,1.343c-0.344,0.344 -0.819,0.557 -1.343,0.557c-0.524,0 -0.999,-0.213 -1.343,-0.557c-0.344,-0.344 -0.557,-0.819 -0.557,-1.343c0,-0.524 0.213,-0.999 0.557,-1.343c0.344,-0.344 0.819,-0.557 1.343,-0.557z" fill="#1c252e"/><path d="M243.85,143.6c0.993,0 1.893,0.403 2.545,1.055c0.652,0.652 1.055,1.552 1.055,2.545c0,0.993 -0.403,1.893 -1.055,2.545c-0.652,0.652 -1.552,1.055 -2.545,1.055c-0.993,0 -1.893,-0.403 -2.545,-1.055c-0.652,-0.652 -1.055,-1.552 -1.055,-2.545c0,-0.993 0.403,-1.893 1.055,-2.545c0.652,-0.652 1.552,-1.055 2.545,-1.055z" fill="#fcf6ec"/><path d="M243.85,145.3c0.524,0 0.999,0.213 1.343,0.557c0.344,0.344 0.557,0.819 0.557,1.343c0,0.524 -0.213,0.999 -0.557,1.343c-0.344,0.344 -0.819,0.557 -1.343,0.557c-0.524,0 -0.999,-0.213 -1.343,-0.557c-0.344,-0.344 -0.557,-0.819 -0.557,-1.343c0,-0.524 0.213,-0.999 0.557,-1.343c0.344,-0.344 0.819,-0.557 1.343,-0.557z" fill="#1c252e"/></g><g><path d="M239.95,168.7c2.787,0 5.312,1.132 7.14,2.96c1.828,1.828 2.96,4.353 2.96,7.14c0,2.787 -1.132,5.312 -2.96,7.14c-1.828,1.828 -4.353,2.96 -7.14,2.96c-2.787,0 -5.312,-1.132 -7.14,-2.96c-1.828,-1.828 -2.96,-4.353 -2.96,-7.14c0,-2.787 1.132,-5.312 2.96,-7.14c1.828,-1.828 4.353,-2.96 7.14,-2.96z" fill="#115c40"/><path d="M233.9447,177.8526c0.6862,-1.6565 1.9806,-2.8792 3.5185,-3.5162c1.5374,-0.636 3.3177,-0.6877 4.9742,-0.0015c1.6574,0.6865 2.8798,1.9819 3.5162,3.5184c0.637,1.5379 0.6877,3.3178 0.0015,4.9743c-0.6865,1.6574 -1.981,2.8801 -3.5188,3.5171c-1.5365,0.6364 -3.3168,0.6881 -4.9742,0.0015c-1.6566,-0.6862 -2.8789,-1.9815 -3.5162,-3.5184c-0.637,-1.5379 -0.6877,-3.3178 -0.0012,-4.9752z" fill="#1c252e"/><path d="M239.85,180l5.1,4.6h-10.1l5,-4.6" fill="#008e77"/></g><path d="M238.3238,153.7578c2.751,-0.4465 5.4247,0.2664 7.5219,1.7779c2.0984,1.5124 3.6193,3.8236 4.0656,6.5736c0.4465,2.751 -0.2654,5.4246 -1.7779,7.522c-1.5114,2.0982 -3.8226,3.6191 -6.5736,4.0656c-2.7501,0.4463 -5.4236,-0.2656 -7.522,-1.778c-2.0972,-1.5115 -3.6191,-3.8226 -4.0656,-6.5736c-0.4463,-2.75 0.2666,-5.4237 1.778,-7.522c1.5125,-2.0974 3.8235,-3.6192 6.5736,-4.0655z" fill="#1c252e"/><path d="M250.05,178h-20.1c0.4,-5.3 4.8,-9.3 10,-9.3c5.2,0 9.6,4 10.1,9.3z" fill="#1c252e"/></g><text transform="translate(234.81909,132.57239) scale(0.5,0.5)" font-size="40" xml:space="preserve" fill="url(#color-1)" fill-rule="nonzero" stroke="none" stroke-width="1" stroke-linecap="butt" stroke-linejoin="miter" stroke-miterlimit="10" stroke-dasharray="" stroke-dashoffset="0" font-family="Sans Serif" font-weight="normal" text-anchor="start" style="mix-blend-mode: normal"><tspan x="0" dy="0">ouch </tspan></text></g></g></svg>