<svg version="1.1" xmlns="http://www.w3.org/2000/svg" xmlns:xlink="http://www.w3.org/1999/xlink" width="704" height="429" viewBox="0,0,704,429"><g transform="translate(116,35.5)"><g data-paper-data="{&quot;isPaintingLayer&quot;:true}" fill-rule="nonzero" stroke-linecap="butt" stroke-linejoin="miter" stroke-miterlimit="10" stroke-dasharray="" stroke-dashoffset="0" style="mix-blend-mode: normal"><path d="M-116,393.5v-429h704v429z" fill="#000000" stroke="none" stroke-width="0"/><path d="M248.26772,82.40597l13.96127,14.03762c3.21331,3.231 3.19934,8.47509 -0.03259,11.6884c-1.55777,1.55125 -3.62766,2.40416 -5.82604,2.40416c-2.21607,0 -4.29806,-0.86501 -5.86049,-2.43675l-13.72756,-13.80112l-13.52271,14.00038c-1.57174,1.6276 -3.68353,2.52334 -5.94616,2.52334c-2.15276,0 -4.19099,-0.82405 -5.74038,-2.31943c-3.27755,-3.16582 -3.3688,-8.40897 -0.20298,-11.68653l13.75363,-14.24061l-13.96034,-14.03762c-3.21424,-3.231 -3.20027,-8.47323 0.03073,-11.68747c1.5587,-1.55032 3.62859,-2.40509 5.8279,-2.40509c2.21514,0 4.29807,0.86594 5.85956,2.43675l13.72756,13.80205l13.52364,-14.00224c1.57173,-1.62761 3.68166,-2.52335 5.94429,-2.52335v0c2.15276,0 4.19285,0.82404 5.74131,2.32036c3.27848,3.16583 3.3688,8.40898 0.20298,11.68747z" data-paper-data="{&quot;index&quot;:null}" fill="#be2026" stroke="#771418" stroke-width="2.5"/><text transform="translate(19.5,156.75) scale(0.86836,0.86836)" font-size="40" xml:space="preserve" fill="#ffffff" fill-rule="nonzero" stroke="none" stroke-width="1" stroke-linecap="butt" stroke-linejoin="miter" stroke-miterlimit="10" stroke-dasharray="" stroke-dashoffset="0" font-family="Pixel" font-weight="normal" text-anchor="start" style="mix-blend-mode: normal"><tspan x="0" dy="0">This is an early Dev build!</tspan></text><text transform="translate(52.82007,185.76875) scale(0.5,0.5)" font-size="40" xml:space="preserve" fill="#ffffff" fill-rule="nonzero" stroke="none" stroke-width="1" stroke-linecap="butt" stroke-linejoin="miter" stroke-miterlimit="10" stroke-dasharray="" stroke-dashoffset="0" font-family="Marker" font-weight="normal" text-anchor="start" style="mix-blend-mode: normal"><tspan x="0" dy="0">NOT EVERYTHING WILL WORK PROPERLY </tspan></text></g></g></svg>