<svg version="1.1" xmlns="http://www.w3.org/2000/svg" xmlns:xlink="http://www.w3.org/1999/xlink" width="120" height="52.287" viewBox="0,0,120,52.287"><defs><linearGradient x1="301.0179" y1="176.9303" x2="181.0184" y2="176.9303" gradientUnits="userSpaceOnUse" id="color-1"><stop offset="0" stop-color="#27aae1"/><stop offset="1" stop-color="#115489"/></linearGradient><linearGradient x1="296.5155" y1="176.9303" x2="185.5223" y2="176.9303" gradientUnits="userSpaceOnUse" id="color-2"><stop offset="0" stop-color="#2f7eba"/><stop offset="0.506" stop-color="#3f9dd6"/><stop offset="1" stop-color="#3e97d1"/></linearGradient></defs><g transform="translate(-181.018,-150.787)"><g data-paper-data="{&quot;isPaintingLayer&quot;:true}" fill-rule="nonzero" stroke="none" stroke-width="1" stroke-linecap="butt" stroke-linejoin="miter" stroke-miterlimit="10" stroke-dasharray="" stroke-dashoffset="0" style="mix-blend-mode: normal"><path d="M181.018,176.931c0,-14.416 11.729,-26.144 26.144,-26.144h67.713c14.415,0 26.143,11.727 26.143,26.144c0,14.415 -11.727,26.143 -26.143,26.143h-67.713c-14.415,0 -26.144,-11.728 -26.144,-26.143z" data-paper-data="{&quot;index&quot;:null}" fill="url(#color-1)"/><path d="M185.522,176.931c0,-11.952 9.688,-21.641 21.64,-21.641h67.713c11.952,0 21.641,9.689 21.641,21.641v0c0,11.951 -9.689,21.64 -21.641,21.64h-67.713c-11.952,0 -21.64,-9.689 -21.64,-21.64z" data-paper-data="{&quot;index&quot;:null}" fill="url(#color-2)"/><text transform="translate(194.11602,179.62975) scale(0.5,0.5)" font-size="40" xml:space="preserve" data-paper-data="{&quot;index&quot;:null}" fill="#000000" fill-rule="nonzero" stroke="none" stroke-width="1" stroke-linecap="butt" stroke-linejoin="miter" stroke-miterlimit="10" stroke-dasharray="" stroke-dashoffset="0" font-family="Marker" font-weight="normal" text-anchor="start" style="mix-blend-mode: normal"><tspan x="0" dy="0">Debug Log</tspan></text></g></g></svg>